<svg xmlns="http://www.w3.org/2000/svg" xmlns:xlink="http://www.w3.org/1999/xlink" viewBox="0 0 256 128"><defs><style>.cls-1{fill:#191363;}.cls-2{fill:#9a8d58;}.cls-3{opacity:0.2;}.cls-4{opacity:0.17;}.cls-13,.cls-5{fill:#705e32;}.cls-6{fill:url(#radial-gradient);}.cls-7{fill:url(#radial-gradient-2);}.cls-8{fill:url(#radial-gradient-3);}.cls-9{fill:url(#radial-gradient-4);}.cls-10{opacity:0.25;}.cls-11{opacity:0.19;}.cls-12{fill:url(#radial-gradient-5);}.cls-13{font-size:21px;font-family:MyriadPro-Regular, Myriad Pro;}.cls-14{letter-spacing:-0.09em;}.cls-15{letter-spacing:-0.01em;}.cls-16{letter-spacing:0em;}.cls-17{letter-spacing:-0.04em;}.cls-18{letter-spacing:-0.05em;}.cls-19{letter-spacing:0em;}.cls-20{font-size:36px;font-family:Arial-BoldMT, Arial;font-weight:700;}</style><radialGradient id="radial-gradient" cx="69.78" cy="64" r="60.75" gradientUnits="userSpaceOnUse"><stop offset="0.01" stop-color="#998675"/><stop offset="0.97" stop-color="#9a8d58"/><stop offset="1" stop-color="#c7b299"/></radialGradient><radialGradient id="radial-gradient-2" cx="69.78" cy="64" r="57.25" gradientUnits="userSpaceOnUse"><stop offset="0.01" stop-color="#998675"/><stop offset="0.99" stop-color="#9a8d58"/></radialGradient><radialGradient id="radial-gradient-3" cx="69.78" cy="64" r="44.75" gradientUnits="userSpaceOnUse"><stop offset="0.01" stop-color="#998675"/><stop offset="1" stop-color="#9a8d58"/></radialGradient><radialGradient id="radial-gradient-4" cx="69.78" cy="64" r="41.25" xlink:href="#radial-gradient-3"/><radialGradient id="radial-gradient-5" cx="69.46" cy="63.68" r="48.13" gradientTransform="matrix(1, 0, 0, 0.99, 0.14, 0.31)" xlink:href="#radial-gradient-3"/></defs><title>IELTSTrainerTimeLogo</title><g id="Layer_3" data-name="Layer 3"><rect class="cls-1" width="256" height="128"/></g><g id="Layer_4" data-name="Layer 4"><rect class="cls-2" x="0.5" y="32.5" width="255" height="63"/><path class="cls-2" d="M255,33V95H1V33H255m1-1H0V96H256V32Z" transform="translate(0 0)"/></g><g id="Layer_8" data-name="Layer 8"><g class="cls-3"><circle cx="70" cy="64" r="62"/></g></g><g id="Layer_9" data-name="Layer 9"><g class="cls-4"><circle cx="70" cy="64" r="62.25"/><path class="cls-5" d="M70,2.5A61.5,61.5,0,1,1,8.5,64,61.57,61.57,0,0,1,70,2.5M70,1a63,63,0,1,0,63,63A63,63,0,0,0,70,1Z" transform="translate(0 0)"/></g></g><g id="Layer_1" data-name="Layer 1"><circle class="cls-6" cx="69.78" cy="64" r="60.75"/><path class="cls-5" d="M69.78,4a60,60,0,1,1-60,60,60.07,60.07,0,0,1,60-60m0-1.5A61.5,61.5,0,1,0,131.28,64,61.5,61.5,0,0,0,69.78,2.5Z" transform="translate(0 0)"/></g><g id="Layer_2" data-name="Layer 2"><circle class="cls-7" cx="69.78" cy="64" r="57.25"/><path class="cls-5" d="M69.78,7.5A56.5,56.5,0,1,1,13.28,64,56.56,56.56,0,0,1,69.78,7.5m0-1.5a58,58,0,1,0,58,58,58,58,0,0,0-58-58Z" transform="translate(0 0)"/></g><g id="Layer_6" data-name="Layer 6"><circle class="cls-8" cx="69.78" cy="64" r="44.75"/><path class="cls-5" d="M69.78,20a44,44,0,1,1-44,44,44.05,44.05,0,0,1,44-44m0-1.5A45.5,45.5,0,1,0,115.28,64a45.5,45.5,0,0,0-45.5-45.5Z" transform="translate(0 0)"/></g><g id="Layer_7" data-name="Layer 7"><circle class="cls-9" cx="69.78" cy="64" r="41.25"/><path class="cls-5" d="M69.78,23.5A40.5,40.5,0,1,1,29.28,64a40.55,40.55,0,0,1,40.5-40.5m0-1.5a42,42,0,1,0,42,42,42,42,0,0,0-42-42Z" transform="translate(0 0)"/></g><g id="Layer_11" data-name="Layer 11"><g class="cls-10"><rect x="4.55" y="44.65" width="131.91" height="39.71" transform="matrix(1, 0, 0, 1, -0.14, 0.16)"/></g><g class="cls-11"><rect x="5.05" y="45" width="131.91" height="40" transform="translate(-0.14 0.16) rotate(-0.13)"/></g></g><g id="Layer_5" data-name="Layer 5"><rect class="cls-12" x="4.26" y="44.57" width="130.41" height="38.21" transform="translate(-0.14 0.15) rotate(-0.13)"/><path class="cls-5" d="M133.87,45.18,134,81.89,5.05,82.17,5,45.47l128.9-.29m1.5-1.5L3.46,44l.09,39.71,131.91-.29-.09-39.71Z" transform="translate(0 0)"/></g><g id="Layer_12" data-name="Layer 12"><text class="cls-13" transform="translate(15.46 69.84)">IE<tspan class="cls-14" x="15.35" y="0">L</tspan><tspan class="cls-15" x="23.41" y="0">T</tspan><tspan class="cls-16" x="33.73" y="0">S</tspan><tspan class="cls-17" x="44.08" y="0"> </tspan><tspan class="cls-18" x="47.67" y="0">T</tspan><tspan class="cls-19" x="57.16" y="0">r</tspan><tspan x="63.92" y="0">ainer</tspan></text></g><g id="Layer_13" data-name="Layer 13"><text class="cls-20" transform="translate(150.65 77.05)">TIME</text></g></svg>